<svg width="24" height="24" viewBox="0 0 24 24" fill="none" xmlns="http://www.w3.org/2000/svg">
<path fill-rule="evenodd" clip-rule="evenodd" d="M12 19C15.866 19 19 15.866 19 12C19 8.13401 15.866 5 12 5C8.13401 5 5 8.13401 5 12C5 15.866 8.13401 19 12 19ZM10.692 10H9C9 8.2 10.2832 7 12.2 7C13.9856 7 15.2 8.14549 15.2 9.7C15.2 10.7094 14.7803 11.4415 13.9 12C13.0696 12.5182 12.74 12.747 12.74 13.393L12.79 14H11.14L11.07 13.3795C10.9888 12.3028 11.4384 11.7451 12.3 11.2C13.1054 10.6818 13.3 10.4258 13.3 9.8C13.3 9.10584 12.7919 8.61507 12 8.61507C11.2081 8.61507 10.7294 9.25976 10.692 10ZM13.1082 16.0472C13.1082 16.7538 12.6774 17.1913 11.9781 17.1913C11.2789 17.1913 10.8418 16.7538 10.8418 16.0472C10.8418 15.3339 11.2789 14.8965 11.9781 14.8965C12.6774 14.8965 13.1082 15.3339 13.1082 16.0472Z" fill="#00395C" fill-opacity="0.8"/>
</svg>
