<svg width="24" height="24" viewBox="0 0 24 24" fill="none" xmlns="http://www.w3.org/2000/svg">
<path d="M12 5C11.4477 5 11 5.44772 11 6C11 6.04201 11.0026 6.08342 11.0076 6.12406C9.27853 6.56545 8 8.13342 8 10V13C7.44772 13 7 13.4477 7 14C7 14.5523 7.44772 15 8 15H16C16.5523 15 17 14.5523 17 14C17 13.4477 16.5523 13 16 13V10C16 8.13342 14.7215 6.56545 12.9924 6.12406C12.9974 6.08342 13 6.04201 13 6C13 5.44772 12.5523 5 12 5Z" fill="#00395C" fill-opacity="0.8"/>
<path d="M14 16C14 17.1046 13.1046 18 12 18C10.8954 18 10 17.1046 10 16H14Z" fill="#00395C" fill-opacity="0.8"/>
</svg>
